<svg xmlns="http://www.w3.org/2000/svg" xmlns:xlink="http://www.w3.org/1999/xlink" version="1.1"  x="0px" y="0px" viewBox="0 0 32 32" style="enable-background:new 0 0 32 32;" xml:space="preserve" width="32" height="32" viewbox="0 0 32 32">

<path id="2666694591__x3C_Compound_Path_x3E__grid" class="st0" d="M24.5,5.5v6l-4,2l3,14h-16l3-14l-4-2v-6h3v2h4v-2h4v2h4v-2H24.5z" style="fill:#FFFFFF;;"></path>
<path id="2666694591_shock_x5F_color_grid" class="stshockcolor" d="M20.1,13.2l3.4,14.3h-16l3.4-14.3H20.1z" style="opacity:0.3;fill:#4D5152;enable-background:new    ;;" data-st="opacity:0.3;fill:#4D5152;enable-background:new    ;;"></path>
<path class="st2" d="M24.1,28H6.9l3-14.2l-3.9-2V5h4v2h3V5h5v2h3V5h4v6.8l-3.9,2L24.1,28z M8.1,27h14.8l-3-13.8l4.1-2V6h-2v2h-5V6  h-3v2H9V6H7v5.2l4.1,2L8.1,27z" style="fill:#4D5152;;"></path>
</svg>